<mxfile host="app.diagrams.net" modified="2022-03-08T03:42:39.514Z" agent="5.0 (Macintosh; Intel Mac OS X 10_15_7) AppleWebKit/537.36 (KHTML, like Gecko) Chrome/98.0.4758.109 Safari/537.36" etag="u9ZiQthFnK6JdPrWISIv" version="16.6.3" type="github">
  <diagram id="I1e0mJSMegtnOHqLABby" name="第 1 页">
    <mxGraphModel dx="946" dy="511" grid="1" gridSize="10" guides="1" tooltips="1" connect="1" arrows="1" fold="1" page="1" pageScale="1" pageWidth="827" pageHeight="1169" math="0" shadow="0">
      <root>
        <mxCell id="0" />
        <mxCell id="1" parent="0" />
        <mxCell id="qnXkBcY3rUYAVOjupVph-14" value="" style="rounded=0;whiteSpace=wrap;html=1;sketch=1;fillColor=#f8cecc;strokeColor=#b85450;" vertex="1" parent="1">
          <mxGeometry x="230" y="310" width="140" height="160.38" as="geometry" />
        </mxCell>
        <mxCell id="qnXkBcY3rUYAVOjupVph-15" value="Core" style="text;html=1;align=center;verticalAlign=middle;resizable=0;points=[];autosize=1;strokeColor=none;fillColor=none;" vertex="1" parent="1">
          <mxGeometry x="280" y="320.38" width="40" height="20" as="geometry" />
        </mxCell>
        <mxCell id="qnXkBcY3rUYAVOjupVph-16" value="编辑器公共组件Toolbar，DropZone等" style="rounded=1;whiteSpace=wrap;html=1;sketch=0;" vertex="1" parent="1">
          <mxGeometry x="250" y="350.38" width="100" height="50" as="geometry" />
        </mxCell>
        <mxCell id="qnXkBcY3rUYAVOjupVph-17" value="基础功能插件&lt;br&gt;BasicPlugins" style="rounded=1;whiteSpace=wrap;html=1;sketch=0;" vertex="1" parent="1">
          <mxGeometry x="250" y="410.38" width="100" height="50" as="geometry" />
        </mxCell>
        <mxCell id="qnXkBcY3rUYAVOjupVph-18" value="" style="rounded=0;whiteSpace=wrap;html=1;sketch=1;fillColor=#f8cecc;strokeColor=#b85450;" vertex="1" parent="1">
          <mxGeometry x="390" y="310" width="140" height="160.38" as="geometry" />
        </mxCell>
        <mxCell id="qnXkBcY3rUYAVOjupVph-19" value="Core" style="text;html=1;align=center;verticalAlign=middle;resizable=0;points=[];autosize=1;strokeColor=none;fillColor=none;" vertex="1" parent="1">
          <mxGeometry x="440" y="320.38" width="40" height="20" as="geometry" />
        </mxCell>
        <mxCell id="qnXkBcY3rUYAVOjupVph-20" value="Debug+Devtool" style="rounded=1;whiteSpace=wrap;html=1;sketch=0;" vertex="1" parent="1">
          <mxGeometry x="410" y="350.38" width="100" height="19.62" as="geometry" />
        </mxCell>
        <mxCell id="qnXkBcY3rUYAVOjupVph-21" value="BasicPlugins" style="rounded=1;whiteSpace=wrap;html=1;sketch=0;" vertex="1" parent="1">
          <mxGeometry x="410" y="380.38" width="100" height="19.62" as="geometry" />
        </mxCell>
        <mxCell id="qnXkBcY3rUYAVOjupVph-23" value="Modifiers" style="rounded=1;whiteSpace=wrap;html=1;sketch=0;" vertex="1" parent="1">
          <mxGeometry x="410" y="410.38" width="100" height="19.62" as="geometry" />
        </mxCell>
        <mxCell id="qnXkBcY3rUYAVOjupVph-24" value="Blots" style="rounded=1;whiteSpace=wrap;html=1;sketch=0;" vertex="1" parent="1">
          <mxGeometry x="410" y="440.76" width="100" height="19.62" as="geometry" />
        </mxCell>
        <mxCell id="qnXkBcY3rUYAVOjupVph-26" value="业务编辑器插件&lt;br&gt;BusinessPlugins" style="rounded=0;whiteSpace=wrap;html=1;sketch=1;fillColor=#fff2cc;strokeColor=#d6b656;" vertex="1" parent="1">
          <mxGeometry x="230" y="180" width="140" height="120" as="geometry" />
        </mxCell>
        <mxCell id="qnXkBcY3rUYAVOjupVph-27" value="" style="rounded=0;whiteSpace=wrap;html=1;sketch=1;fillColor=#fff2cc;strokeColor=#d6b656;" vertex="1" parent="1">
          <mxGeometry x="390" y="180" width="140" height="80" as="geometry" />
        </mxCell>
        <mxCell id="qnXkBcY3rUYAVOjupVph-28" value="客户端部分" style="text;html=1;align=center;verticalAlign=middle;resizable=0;points=[];autosize=1;strokeColor=none;fillColor=none;" vertex="1" parent="1">
          <mxGeometry x="410" y="180" width="80" height="20" as="geometry" />
        </mxCell>
        <mxCell id="qnXkBcY3rUYAVOjupVph-31" value="ZHMiddlewareEditor" style="rounded=1;whiteSpace=wrap;html=1;sketch=0;dashed=1;" vertex="1" parent="1">
          <mxGeometry x="400" y="230" width="120" height="19.62" as="geometry" />
        </mxCell>
        <mxCell id="qnXkBcY3rUYAVOjupVph-32" value="ZHCoreEditor" style="rounded=1;whiteSpace=wrap;html=1;sketch=0;dashed=1;" vertex="1" parent="1">
          <mxGeometry x="410" y="200" width="100" height="19.62" as="geometry" />
        </mxCell>
        <mxCell id="qnXkBcY3rUYAVOjupVph-33" value="业务员编辑器插件&lt;br&gt;JS Bridge" style="rounded=0;whiteSpace=wrap;html=1;sketch=1;fillColor=#fff2cc;strokeColor=#d6b656;" vertex="1" parent="1">
          <mxGeometry x="390" y="270" width="140" height="30" as="geometry" />
        </mxCell>
        <mxCell id="qnXkBcY3rUYAVOjupVph-34" value="" style="rounded=0;whiteSpace=wrap;html=1;sketch=1;fillColor=#dae8fc;strokeColor=#6c8ebf;" vertex="1" parent="1">
          <mxGeometry x="230" y="480" width="140" height="110" as="geometry" />
        </mxCell>
        <mxCell id="qnXkBcY3rUYAVOjupVph-35" value="" style="rounded=0;whiteSpace=wrap;html=1;sketch=1;fillColor=#dae8fc;strokeColor=#6c8ebf;" vertex="1" parent="1">
          <mxGeometry x="390" y="480" width="140" height="110" as="geometry" />
        </mxCell>
        <mxCell id="qnXkBcY3rUYAVOjupVph-36" value="PC 端编辑器场景" style="rounded=0;whiteSpace=wrap;html=1;sketch=1;fillColor=#d5e8d4;strokeColor=#82b366;" vertex="1" parent="1">
          <mxGeometry x="230" y="120" width="140" height="40" as="geometry" />
        </mxCell>
        <mxCell id="qnXkBcY3rUYAVOjupVph-38" value="知乎 App&lt;br&gt;Hybrid 编辑器场景" style="rounded=0;whiteSpace=wrap;html=1;sketch=1;fillColor=#d5e8d4;strokeColor=#82b366;" vertex="1" parent="1">
          <mxGeometry x="390" y="120" width="140" height="40" as="geometry" />
        </mxCell>
        <mxCell id="qnXkBcY3rUYAVOjupVph-39" value="回答 + 文章 + 想法 + 盐选 场景" style="rounded=0;whiteSpace=wrap;html=1;sketch=1;fillColor=#d5e8d4;strokeColor=#82b366;" vertex="1" parent="1">
          <mxGeometry x="230" y="70" width="300" height="40" as="geometry" />
        </mxCell>
        <mxCell id="qnXkBcY3rUYAVOjupVph-40" value="业务能力层" style="text;html=1;align=center;verticalAlign=middle;resizable=0;points=[];autosize=1;strokeColor=none;fillColor=none;" vertex="1" parent="1">
          <mxGeometry x="130" y="230" width="80" height="20" as="geometry" />
        </mxCell>
        <mxCell id="qnXkBcY3rUYAVOjupVph-41" value="核心能力层" style="text;html=1;align=center;verticalAlign=middle;resizable=0;points=[];autosize=1;strokeColor=none;fillColor=none;" vertex="1" parent="1">
          <mxGeometry x="130" y="380" width="80" height="20" as="geometry" />
        </mxCell>
        <mxCell id="qnXkBcY3rUYAVOjupVph-42" value="基础能力层" style="text;html=1;align=center;verticalAlign=middle;resizable=0;points=[];autosize=1;strokeColor=none;fillColor=none;" vertex="1" parent="1">
          <mxGeometry x="130" y="525" width="80" height="20" as="geometry" />
        </mxCell>
        <mxCell id="qnXkBcY3rUYAVOjupVph-43" value="业务应用层" style="text;html=1;align=center;verticalAlign=middle;resizable=0;points=[];autosize=1;strokeColor=none;fillColor=none;" vertex="1" parent="1">
          <mxGeometry x="130" y="110" width="80" height="20" as="geometry" />
        </mxCell>
        <mxCell id="qnXkBcY3rUYAVOjupVph-44" value="&lt;span&gt;Draft.js&lt;/span&gt;" style="text;html=1;align=center;verticalAlign=middle;resizable=0;points=[];autosize=1;strokeColor=none;fillColor=none;" vertex="1" parent="1">
          <mxGeometry x="275" y="480" width="50" height="20" as="geometry" />
        </mxCell>
        <mxCell id="qnXkBcY3rUYAVOjupVph-45" value="&lt;span&gt;Quill.js&lt;/span&gt;" style="text;html=1;align=center;verticalAlign=middle;resizable=0;points=[];autosize=1;strokeColor=none;fillColor=none;" vertex="1" parent="1">
          <mxGeometry x="435" y="480" width="50" height="20" as="geometry" />
        </mxCell>
        <mxCell id="qnXkBcY3rUYAVOjupVph-46" value="EditorContents" style="rounded=1;whiteSpace=wrap;html=1;sketch=0;" vertex="1" parent="1">
          <mxGeometry x="250" y="505" width="100" height="19.62" as="geometry" />
        </mxCell>
        <mxCell id="qnXkBcY3rUYAVOjupVph-47" value="EditorBlokc" style="rounded=1;whiteSpace=wrap;html=1;sketch=0;" vertex="1" parent="1">
          <mxGeometry x="250" y="535" width="100" height="19.62" as="geometry" />
        </mxCell>
        <mxCell id="qnXkBcY3rUYAVOjupVph-48" value="Editorleaf" style="rounded=1;whiteSpace=wrap;html=1;sketch=0;" vertex="1" parent="1">
          <mxGeometry x="250" y="565.38" width="100" height="19.62" as="geometry" />
        </mxCell>
        <mxCell id="qnXkBcY3rUYAVOjupVph-49" value="Modules" style="rounded=1;whiteSpace=wrap;html=1;sketch=0;" vertex="1" parent="1">
          <mxGeometry x="410" y="505" width="100" height="19.62" as="geometry" />
        </mxCell>
        <mxCell id="qnXkBcY3rUYAVOjupVph-50" value="Parchment" style="rounded=1;whiteSpace=wrap;html=1;sketch=0;" vertex="1" parent="1">
          <mxGeometry x="410" y="535" width="100" height="19.62" as="geometry" />
        </mxCell>
        <mxCell id="qnXkBcY3rUYAVOjupVph-51" value="Delta" style="rounded=1;whiteSpace=wrap;html=1;sketch=0;" vertex="1" parent="1">
          <mxGeometry x="410" y="565.38" width="100" height="19.62" as="geometry" />
        </mxCell>
      </root>
    </mxGraphModel>
  </diagram>
</mxfile>
